<?xml version="1.0" encoding="UTF-8"?>
<svg width="151px" height="49px" viewBox="0 0 151 49" version="1.1" xmlns="http://www.w3.org/2000/svg" xmlns:xlink="http://www.w3.org/1999/xlink">
    <!-- Generator: Sketch 53.2 (72643) - https://sketchapp.com -->
    <title>Artboard</title>
    <desc>Created with Sketch.</desc>
    <g id="Artboard" stroke="none" stroke-width="1" fill="none" fill-rule="evenodd">
        <path d="M30.1539063,17 L30.1539063,0.51171875 L32.5796876,0.51171875 L38.3687501,11.2929688 L44.1460938,0.51171875 L46.5718751,0.51171875 L46.5718751,17 L44.1460938,17 L44.1460938,5.26953125 L38.3687501,16.0390625 L32.5796876,5.26953125 L32.5796876,17 L30.1539063,17 Z M53.0489063,17 L60.1270313,0.51171875 L62.8223438,0.51171875 L69.9004688,17 L67.2168751,17 L65.7754688,13.6367188 L57.1856251,13.6367188 L55.7442188,17 L53.0489063,17 Z M58.1114063,11.4570312 L64.8379688,11.4570312 L61.4746876,3.62890625 L58.1114063,11.4570312 Z M76.3775001,17 L76.3775001,0.51171875 L82.0728126,0.51171875 C83.8306338,0.51171875 85.4028837,0.859371523 86.7896094,1.5546875 C88.1763351,2.25000348 89.2564024,3.22460311 90.0298438,4.47851562 C90.8032852,5.73242814 91.1900001,7.15233582 91.1900001,8.73828125 C91.1900001,10.3320392 90.8032852,11.7558531 90.0298438,13.0097656 C89.2564024,14.2636781 88.1763351,15.242184 86.7896094,15.9453125 C85.4028837,16.648441 83.8306338,17 82.0728126,17 L76.3775001,17 Z M78.8032813,14.796875 L82.2134376,14.796875 C84.1196971,14.796875 85.6763221,14.2324275 86.8833594,13.1035156 C88.0903967,11.9746037 88.6939063,10.5195402 88.6939063,8.73828125 C88.6939063,6.97264742 88.0903967,5.52734938 86.8833594,4.40234375 C85.6763221,3.27733812 84.1196971,2.71484375 82.2134376,2.71484375 L78.8032813,2.71484375 L78.8032813,14.796875 Z M97.9248438,17 L97.9248438,0.51171875 L100.374063,0.51171875 L100.374063,14.7382812 L109.11625,14.7382812 L109.11625,17 L97.9248438,17 Z M114.245625,17 L121.32375,0.51171875 L124.019063,0.51171875 L131.097188,17 L128.413594,17 L126.972188,13.6367188 L118.382344,13.6367188 L116.940938,17 L114.245625,17 Z M119.308125,11.4570312 L126.034688,11.4570312 L122.671406,3.62890625 L119.308125,11.4570312 Z M137.574219,17 L137.574219,0.51171875 L145.402344,0.51171875 C146.785163,0.51171875 147.914058,0.894527422 148.789062,1.66015625 C149.664067,2.42578508 150.101562,3.41015023 150.101562,4.61328125 C150.101562,5.44141039 149.904299,6.14843457 149.509766,6.734375 C149.115232,7.32031543 148.531254,7.83202906 147.757812,8.26953125 C148.726567,8.74609613 149.472654,9.34569951 149.996094,10.0683594 C150.519534,10.7910192 150.78125,11.6054642 150.78125,12.5117188 C150.78125,13.8242253 150.304692,14.9003864 149.351562,15.7402344 C148.398433,16.5800823 147.183601,17 145.707031,17 L137.574219,17 Z M140,14.8671875 L145.15625,14.8671875 C146.07813,14.8671875 146.833981,14.6113307 147.423828,14.0996094 C148.013675,13.5878881 148.308594,12.9375039 148.308594,12.1484375 C148.308594,11.3593711 148.013675,10.71094 147.423828,10.203125 C146.833981,9.69530996 146.07813,9.44140625 145.15625,9.44140625 L140,9.44140625 L140,14.8671875 Z M140,7.37890625 L144.804688,7.37890625 C145.632817,7.37890625 146.310544,7.15820533 146.837891,6.71679688 C147.365237,6.27538842 147.628906,5.71094094 147.628906,5.0234375 C147.628906,4.33593406 147.363284,3.76758037 146.832031,3.31835938 C146.300779,2.86913838 145.625004,2.64453125 144.804688,2.64453125 L140,2.64453125 L140,7.37890625 Z" id="MADLAB" fill="#E90081" fill-rule="nonzero"></path>
        <path d="M1.244775,48 L1.244775,26.015625 L9.10415,26.015625 C11.5416622,26.015625 13.7213279,26.479162 15.6432125,27.40625 C17.5650971,28.333338 19.062478,29.6328041 20.1354,31.3046875 C21.208322,32.9765709 21.744775,34.8697811 21.744775,36.984375 C21.744775,39.1093856 21.208322,41.0078041 20.1354,42.6796875 C19.062478,44.3515709 17.5650971,45.6562453 15.6432125,46.59375 C13.7213279,47.5312547 11.5416622,48 9.10415,48 L1.244775,48 Z M5.9479,43.71875 L9.713525,43.71875 C11.8072855,43.71875 13.5260183,43.088548 14.869775,41.828125 C16.2135317,40.567702 16.8854,38.9531348 16.8854,36.984375 C16.8854,35.0364486 16.2135317,33.4349021 14.869775,32.1796875 C13.5260183,30.9244729 11.8072855,30.296875 9.713525,30.296875 L5.9479,30.296875 L5.9479,43.71875 Z M31.607625,48 L31.607625,26.015625 L48.545125,26.015625 L48.545125,30.265625 L36.342,30.265625 L36.342,34.65625 L47.388875,34.65625 L47.388875,38.90625 L36.342,38.90625 L36.342,43.75 L48.545125,43.75 L48.545125,48 L31.607625,48 Z M56.89235,44.734375 L59.6111,41.5 C61.8402778,43.427093 64.251712,44.390625 66.845475,44.390625 C67.9913141,44.390625 68.8741177,44.1588565 69.4939125,43.6953125 C70.1137073,43.2317685 70.4236,42.6406286 70.4236,41.921875 C70.4236,41.182288 70.0980824,40.6302102 69.4470375,40.265625 C68.7959926,39.9010398 67.5746506,39.515627 65.782975,39.109375 C64.7517198,38.8697905 63.8767286,38.638022 63.157975,38.4140625 C62.4392214,38.190103 61.7230827,37.8984393 61.0095375,37.5390625 C60.2959923,37.1796857 59.7256855,36.7812522 59.2986,36.34375 C58.8715145,35.9062478 58.5251638,35.3619824 58.2595375,34.7109375 C57.9939112,34.0598926 57.8611,33.3177125 57.8611,32.484375 C57.8611,30.4531148 58.6163008,28.8020897 60.126725,27.53125 C61.6371492,26.2604103 63.5902547,25.625 65.9861,25.625 C69.3611169,25.625 72.2308798,26.6406148 74.595475,28.671875 L72.126725,32.0625 C70.0954648,30.4374919 68.0069441,29.625 65.8611,29.625 C64.8819284,29.625 64.0980821,29.8515602 63.5095375,30.3046875 C62.9209929,30.7578148 62.626725,31.3229133 62.626725,32 C62.626725,32.7604205 62.960055,33.3281231 63.626725,33.703125 C64.293395,34.0781269 65.5277577,34.468748 67.32985,34.875 C68.3506884,35.1041678 69.2334921,35.3359363 69.9782875,35.5703125 C70.7230829,35.8046887 71.4418257,36.1015607 72.1345375,36.4609375 C72.8272493,36.8203143 73.3871395,37.221352 73.814225,37.6640625 C74.2413105,38.106773 74.5798487,38.643226 74.82985,39.2734375 C75.0798512,39.903649 75.20485,40.6145794 75.20485,41.40625 C75.20485,43.5208439 74.4444409,45.2135353 72.9236,46.484375 C71.4027591,47.7552147 69.3142383,48.390625 66.657975,48.390625 C64.7517155,48.390625 62.9678791,48.0781281 61.3064125,47.453125 C59.6449459,46.8281219 58.1736064,45.9218809 56.89235,44.734375 Z M84.864575,48 L84.864575,26.015625 L89.59895,26.015625 L89.59895,48 L84.864575,48 Z M100.289925,41.359375 C99.6545052,39.953118 99.3368,38.4947992 99.3368,36.984375 C99.3368,35.4739508 99.6545052,34.0182362 100.289925,32.6171875 C100.925345,31.2161388 101.771691,30.0052134 102.828987,28.984375 C103.886284,27.9635366 105.14148,27.1484405 106.594612,26.5390625 C108.047745,25.9296845 109.555542,25.625 111.11805,25.625 C112.774308,25.625 114.396688,25.9531217 115.985237,26.609375 C117.573787,27.2656283 118.91492,28.1666609 120.008675,29.3125 L116.5868,32.390625 C115.930547,31.6406212 115.107638,31.0416689 114.11805,30.59375 C113.128462,30.1458311 112.128472,29.921875 111.11805,29.921875 C110.201379,29.921875 109.315971,30.1119773 108.4618,30.4921875 C107.607629,30.8723977 106.870657,31.3802052 106.250862,32.015625 C105.631068,32.6510448 105.133677,33.4036415 104.758675,34.2734375 C104.383673,35.1432335 104.196175,36.0468703 104.196175,36.984375 C104.196175,38.244798 104.508672,39.4218695 105.133675,40.515625 C105.758678,41.6093805 106.605024,42.4791634 107.672737,43.125 C108.740451,43.7708366 109.888877,44.09375 111.11805,44.09375 C112.659724,44.09375 114.086793,43.6250047 115.3993,42.6875 L115.3993,39.328125 L110.2743,39.328125 L110.2743,35.640625 L120.008675,35.640625 L120.008675,44.703125 C118.91492,45.8489641 117.573787,46.7499967 115.985237,47.40625 C114.396688,48.0625033 112.774308,48.390625 111.11805,48.390625 C109.555542,48.390625 108.047745,48.0833364 106.594612,47.46875 C105.14148,46.8541636 103.886284,46.0338593 102.828987,45.0078125 C101.771691,43.9817657 100.925345,42.765632 100.289925,41.359375 Z M130.38715,48 L130.38715,26.015625 L135.090275,26.015625 L145.6684,40.21875 L145.6684,26.015625 L150.4184,26.015625 L150.4184,48 L145.6684,48 L135.090275,33.796875 L135.090275,48 L130.38715,48 Z" id="DESIGN" fill-opacity="0.436707823" fill="#CCCCCC" fill-rule="nonzero" opacity="0.585658482"></path>
    </g>
</svg>