<?xml version="1.0" standalone="no"?>
<!DOCTYPE svg PUBLIC "-//W3C//DTD SVG 20010904//EN"
 "http://www.w3.org/TR/2001/REC-SVG-20010904/DTD/svg10.dtd">
<svg version="1.0" xmlns="http://www.w3.org/2000/svg"
 width="512.000000pt" height="512.000000pt" viewBox="0 0 512.000000 512.000000"
 preserveAspectRatio="xMidYMid meet">
<metadata>
Created by potrace 1.14, written by Peter Selinger 2001-2017
</metadata>
<g transform="translate(0.000000,512.000000) scale(0.100000,-0.100000)"
fill="#000000" stroke="none">
<path d="M3640 4749 c-59 -51 -174 -118 -265 -155 -122 -50 -279 -86 -580
-134 -329 -52 -435 -74 -562 -116 -250 -83 -389 -184 -471 -339 -50 -96 -32
25 19 127 25 50 25 51 -19 29 -41 -21 -106 -87 -166 -168 -21 -29 -41 -53 -46
-53 -13 0 -23 78 -15 128 4 26 18 75 31 109 l23 63 -32 -16 c-165 -85 -297
-206 -360 -329 -49 -98 -62 -160 -61 -302 l0 -132 -26 20 c-14 11 -37 29 -53
40 l-27 20 1 -23 c0 -13 8 -108 18 -213 10 -104 16 -192 15 -194 -2 -2 -23 14
-48 34 -55 45 -53 60 -26 -185 11 -96 20 -185 20 -197 0 -22 -2 -23 -104 -21
-98 2 -107 0 -169 -30 -157 -78 -220 -225 -220 -517 0 -172 17 -258 78 -382
72 -145 152 -227 395 -404 63 -45 117 -84 120 -86 2 -2 -14 -41 -37 -86 -34
-67 -39 -83 -27 -85 36 -8 82 10 121 47 23 22 43 38 46 35 2 -3 -11 -53 -30
-111 -19 -58 -32 -108 -29 -111 12 -12 85 20 114 49 l30 31 39 -44 c22 -23 81
-90 130 -148 207 -241 363 -375 528 -456 324 -157 754 -131 1086 66 132 78
229 166 386 349 l29 34 50 -29 c27 -15 101 -62 163 -102 123 -80 167 -94 223
-72 112 45 189 173 158 264 -14 43 -69 94 -138 125 -28 14 -52 29 -52 34 0 6
-28 54 -61 109 -34 54 -60 100 -58 102 2 2 95 71 205 154 111 83 224 173 252
200 94 91 154 211 168 333 8 71 17 60 28 -33 4 -32 11 -58 16 -58 17 0 25 75
24 225 -1 177 -17 261 -70 373 -43 90 -143 195 -221 232 -69 33 -162 37 -236
12 -40 -13 -60 -16 -62 -8 -1 6 -7 43 -13 82 -24 155 -104 346 -195 471 -51
69 -54 64 46 79 58 8 132 55 164 103 13 19 23 37 23 41 0 3 -26 4 -59 2 -36
-3 -79 2 -115 12 l-56 17 56 55 c96 97 150 199 161 309 5 53 -15 167 -41 228
l-15 38 -161 -107 c-88 -59 -162 -105 -165 -102 -3 3 24 49 61 102 144 211
186 359 153 542 -12 71 -38 154 -47 154 -4 -1 -23 -14 -42 -31z m-742 -1069
c90 -12 191 -44 268 -87 67 -37 191 -164 237 -243 36 -63 105 -255 95 -266 -3
-2 -43 2 -89 10 -144 25 -357 39 -494 33 -150 -7 -241 -30 -300 -77 -35 -28
-43 -30 -122 -30 -80 0 -88 2 -123 30 -21 17 -57 37 -81 45 -62 22 -392 37
-554 25 -136 -9 -185 -20 -247 -51 l-38 -19 10 24 c27 71 97 157 179 220 122
94 350 205 420 206 36 0 72 -31 124 -108 20 -29 46 -50 90 -71 59 -29 167 -52
167 -36 0 4 -14 23 -31 43 -59 67 -73 134 -43 198 18 37 89 104 111 104 15 0
17 -32 4 -78 -8 -27 -7 -31 5 -24 13 7 85 97 102 129 15 27 180 39 310 23z
m-355 -962 c7 -18 26 -62 44 -98 18 -35 31 -65 30 -67 -1 -1 -21 1 -44 4 -31
4 -40 9 -36 20 5 12 -2 13 -33 8 -51 -9 -131 -34 -168 -53 l-30 -14 30 38 c43
56 58 83 79 136 16 44 20 47 59 51 22 2 45 4 49 5 5 1 14 -13 20 -30z m1626
-159 c19 -11 42 -30 52 -42 45 -53 89 -223 89 -341 0 -256 -148 -451 -614
-810 -76 -59 -141 -105 -143 -102 -3 3 53 67 125 143 164 173 247 273 351 418
100 139 146 227 167 322 20 90 8 151 -38 208 -34 40 -117 85 -158 85 -24 -1
-25 -1 -5 -15 82 -61 84 -86 12 -192 -30 -43 -61 -92 -70 -109 -25 -49 -38
-122 -31 -173 l7 -45 22 67 c23 71 44 101 94 130 l31 18 0 -28 c-1 -104 -169
-335 -334 -460 -59 -44 -188 -113 -212 -113 -19 0 5 85 74 260 138 355 166
431 202 546 20 67 46 135 59 152 62 88 236 132 320 81z m-3214 -69 c25 -12 57
-37 71 -56 34 -45 324 -829 324 -876 0 -26 -18 -22 -96 16 -137 69 -305 242
-379 390 -40 78 -45 116 -16 116 31 0 76 -61 96 -131 16 -56 19 -61 26 -39 21
72 -6 154 -89 277 -65 95 -67 137 -9 174 l32 21 -47 -5 c-61 -6 -109 -42 -138
-103 -31 -63 -24 -167 15 -245 90 -177 212 -340 418 -559 80 -85 144 -157 142
-159 -2 -2 -37 20 -77 50 -330 242 -523 440 -590 607 -19 49 -22 75 -22 182 0
110 3 134 28 205 44 128 95 168 203 161 36 -2 81 -13 108 -26z m1830 -71 c164
-92 268 -289 221 -414 -20 -52 -55 -85 -162 -150 -103 -63 -124 -83 -123 -114
0 -26 0 -26 11 -3 6 12 15 22 21 22 5 0 48 27 95 60 98 68 93 70 107 -35 7
-45 8 -48 18 -27 8 17 7 39 -1 80 -11 51 -10 58 7 75 18 18 20 16 96 -72 43
-50 80 -91 82 -91 3 0 -7 21 -21 47 -15 25 -24 48 -22 50 9 9 86 -105 120
-177 32 -67 96 -329 96 -389 0 -18 -8 -19 -122 -14 -68 3 -125 10 -126 15 -10
24 -59 71 -93 88 -86 44 -157 19 -394 -141 -93 -63 -200 -127 -237 -142 -148
-59 -296 -57 -416 5 -30 16 -52 58 -52 100 -1 31 -1 32 -15 14 -8 -11 -15 -32
-15 -46 0 -55 91 -140 177 -166 47 -14 184 -17 238 -5 17 4 -22 7 -85 7 -87 0
-124 4 -150 16 l-35 17 35 -7 c19 -4 89 -6 155 -6 96 1 140 7 218 28 53 14
123 26 155 26 49 1 55 2 40 14 -24 18 -23 26 5 27 17 0 14 3 -13 13 l-35 13
40 11 c22 6 120 11 217 11 144 1 179 -2 191 -14 9 -8 23 -15 33 -15 51 0 137
-64 168 -125 14 -26 16 -27 16 -8 0 12 -15 39 -32 60 l-33 37 80 -43 c44 -23
81 -44 83 -46 7 -6 -31 -132 -57 -189 -21 -46 -44 -76 -97 -122 -110 -97 -203
-163 -289 -205 -153 -76 -245 -61 -304 50 -47 90 -73 102 -86 41 -10 -47 -60
-106 -110 -130 -100 -48 -258 -10 -429 105 -96 64 -143 110 -189 188 -103 172
-110 468 -15 735 33 94 122 275 113 229 -12 -57 18 -21 77 96 48 95 63 116 73
107 11 -9 13 -28 8 -75 -10 -113 17 -128 32 -17 4 28 9 52 13 52 3 0 47 -32
99 -70 110 -83 123 -90 123 -62 0 30 -28 57 -100 97 -126 71 -180 124 -201
200 -30 106 72 286 213 376 46 30 53 31 113 26 64 -6 108 -23 153 -58 27 -21
39 -18 126 35 76 46 117 47 191 5z m-1223 -22 c157 -73 354 -84 515 -27 32 11
58 20 60 20 1 0 -20 -23 -47 -51 -26 -27 -61 -75 -77 -105 l-28 -54 -92 0
c-83 0 -92 2 -98 20 -3 11 -15 20 -25 20 -11 0 -24 9 -30 20 -6 11 -20 20 -30
20 -11 0 -20 5 -20 10 0 6 -9 10 -19 10 -11 0 -23 -4 -26 -10 -3 -5 -13 -10
-22 -10 -12 0 -13 3 -4 14 10 12 6 15 -25 18 -34 3 -40 8 -70 63 -34 60 -41
80 -26 73 4 -2 33 -16 64 -31z m1853 -37 c-8 -16 -29 -45 -46 -64 -26 -30 -34
-34 -55 -26 -37 14 -54 12 -54 -6 0 -13 -3 -14 -14 -5 -11 9 -18 5 -35 -23
-27 -43 -36 -46 -126 -46 l-73 0 -30 53 c-17 28 -46 69 -65 90 -19 20 -34 37
-33 37 0 0 26 -7 56 -15 145 -39 370 -23 488 34 1 0 -4 -12 -13 -29z m-525
-1096 l0 -85 -37 3 -38 3 -3 73 c-3 67 -1 73 20 82 55 21 58 17 58 -76z m75
72 c30 -13 35 -20 35 -47 0 -25 -9 -41 -41 -70 -23 -21 -46 -36 -50 -33 -5 3
-9 41 -9 85 0 88 3 91 65 65z m-165 -87 l0 -72 -41 6 c-53 7 -63 18 -55 60 5
25 16 42 39 56 52 33 57 29 57 -50z m-110 -22 c0 -31 -4 -34 -41 -29 l-31 5
28 23 c37 30 44 30 44 1z m792 -32 c171 -38 438 -126 438 -144 0 -4 -15 -12
-33 -19 -53 -19 -104 -76 -117 -133 -7 -28 -10 -61 -7 -74 2 -14 0 -25 -4 -25
-5 0 -91 53 -192 119 -235 151 -333 208 -430 247 -43 18 -73 35 -67 39 49 30
257 26 412 -10z m549 -218 c69 -53 42 -179 -52 -241 -57 -38 -108 -45 -133
-17 -27 30 -33 110 -11 167 30 78 144 131 196 91z"/>
<path d="M2942 3485 c-62 -17 -102 -37 -161 -79 -44 -32 -94 -93 -86 -107 3
-4 29 6 58 22 159 87 443 77 600 -23 26 -17 51 -28 54 -24 3 3 -7 27 -23 53
-77 125 -290 201 -442 158z"/>
<path d="M1779 3272 c-67 -23 -140 -71 -170 -114 -27 -37 -25 -37 81 8 55 23
83 28 180 32 127 5 211 -11 288 -53 35 -20 42 -21 42 -8 0 28 -85 100 -147
123 -80 31 -199 36 -274 12z"/>
<path d="M2195 2216 c-41 -80 -47 -100 -42 -134 5 -42 40 -102 59 -102 6 0 6
6 -2 15 -18 22 0 19 65 -11 46 -21 67 -25 106 -21 42 5 49 3 54 -14 12 -37 25
-7 25 59 0 37 4 73 9 80 11 18 55 11 58 -8 1 -8 5 -45 8 -82 7 -69 20 -88 31
-43 5 20 9 23 24 15 30 -16 66 -12 132 15 73 30 72 30 64 8 -4 -11 4 -7 18 10
34 37 47 88 34 133 -9 34 -75 164 -83 164 -13 0 -109 -72 -156 -116 -58 -54
-93 -71 -127 -60 -10 4 -47 36 -81 71 -35 36 -71 65 -82 65 -10 0 -29 11 -42
25 l-23 26 -49 -95z"/>
<path d="M1937 1211 c8 -30 35 -50 99 -72 48 -17 76 -20 149 -17 80 4 100 9
178 45 96 46 117 65 35 32 -67 -27 -99 -35 -78 -20 21 15 2 13 -50 -5 -88 -31
-263 -11 -305 36 -23 25 -35 26 -28 1z"/>
<path d="M2480 881 c-26 -6 -7 -9 71 -10 59 0 122 -3 140 -6 l34 -5 -30 10
c-42 14 -173 20 -215 11z"/>
</g>
</svg>
