<?xml version="1.0" standalone="no"?>
<!DOCTYPE svg PUBLIC "-//W3C//DTD SVG 20010904//EN"
 "http://www.w3.org/TR/2001/REC-SVG-20010904/DTD/svg10.dtd">
<svg version="1.0" xmlns="http://www.w3.org/2000/svg"
 width="480.000000pt" height="480.000000pt" viewBox="0 0 480.000000 480.000000"
 preserveAspectRatio="xMidYMid meet">
<metadata>
Created by potrace 1.11, written by Peter Selinger 2001-2013
</metadata>
<g transform="translate(0.000000,480.000000) scale(0.100000,-0.100000)"
fill="#000000" stroke="none">
<path d="M0 2400 l0 -2400 2400 0 2400 0 0 2400 0 2400 -2400 0 -2400 0 0
-2400z m3375 2091 c218 -89 341 -231 353 -410 5 -70 4 -74 -14 -66 -38 17
-404 74 -551 85 -220 18 -359 -4 -498 -79 -36 -19 -55 -21 -215 -21 l-175 0
-32 39 c-24 29 -29 41 -20 50 16 16 52 14 67 -5 8 -8 22 -20 33 -26 19 -10 19
-9 -2 18 l-22 28 26 14 c14 7 40 12 58 10 29 -3 32 -6 29 -33 l-3 -30 16 30
c26 49 54 65 83 46 11 -7 8 -17 -13 -50 -38 -57 -25 -64 14 -7 27 39 62 71
145 136 10 8 26 22 35 30 9 8 32 26 51 39 19 14 49 36 66 50 17 14 44 35 59
46 16 11 40 30 54 41 34 28 130 85 161 95 14 5 68 7 120 5 80 -2 108 -8 175
-35z m-1740 -360 l70 -7 -70 -7 c-38 -5 -126 -14 -195 -22 -69 -7 -133 -16
-143 -20 -13 -5 -16 -3 -12 8 5 13 47 35 95 51 21 6 171 5 255 -3z m163 -18
c-15 -2 -42 -2 -60 0 -18 2 -6 4 27 4 33 0 48 -2 33 -4z m238 -23 c145 -21
176 -32 199 -67 l15 -23 -58 0 c-43 0 -66 5 -84 19 -28 22 -128 58 -213 76
-98 21 -11 18 141 -5z m-234 -125 c62 -9 129 -21 148 -27 46 -15 97 -56 111
-90 6 -16 15 -28 19 -28 14 0 30 -89 30 -172 0 -80 -10 -140 -30 -183 -6 -11
-16 -38 -24 -60 -24 -71 -104 -178 -181 -243 -15 -13 -57 -38 -94 -55 -56 -26
-81 -31 -166 -35 -89 -3 -108 -1 -174 22 -142 50 -234 137 -280 266 -20 55
-24 85 -25 205 -1 133 0 143 27 198 56 118 134 168 305 197 136 23 194 24 334
5z m1531 -19 c150 -24 213 -69 258 -183 20 -51 23 -76 23 -208 0 -146 -1 -152
-31 -222 -35 -83 -69 -126 -134 -171 -120 -84 -336 -113 -464 -64 -142 55
-252 184 -311 362 -24 72 -28 101 -28 195 0 99 2 115 26 160 40 78 92 118 183
142 64 16 342 10 478 -11z m-993 -207 c0 -39 -19 -59 -55 -59 -45 0 -44 11 3
49 44 36 52 38 52 10z m78 -11 c10 -37 1 -48 -39 -48 -34 0 -36 3 -31 45 4 31
7 35 33 35 24 0 30 -5 37 -32z m67 5 c38 -26 39 -27 16 -37 -29 -13 -52 1 -62
37 -9 34 -3 34 46 0z m56 -79 c3 -11 5 -22 3 -26 -3 -4 0 -9 6 -13 5 -3 10
-49 11 -103 1 -59 4 -87 8 -72 5 17 7 7 7 -32 0 -49 -3 -58 -21 -61 -11 -2 1
-5 27 -6 37 -1 51 -6 67 -27 28 -35 26 -44 -6 -44 -16 0 -50 -9 -78 -20 -27
-12 -38 -18 -23 -15 66 13 145 16 170 6 24 -9 73 -69 64 -78 -2 -2 -16 3 -32
12 -39 20 -120 19 -169 -4 -69 -31 -138 -123 -122 -163 3 -7 6 -1 6 14 1 30
78 118 104 118 8 0 17 6 20 13 2 8 26 12 73 12 61 -1 76 -5 129 -37 62 -37
163 -133 213 -203 46 -64 82 -171 81 -240 -1 -130 -103 -246 -289 -329 -25
-11 -47 -23 -50 -26 -3 -4 -13 -9 -22 -13 -15 -5 -26 -34 -44 -112 -2 -11 6 3
20 31 13 28 29 55 35 58 18 11 13 -9 -9 -37 -12 -15 -19 -39 -19 -59 1 -24 3
-27 6 -10 4 21 26 59 68 119 9 13 24 27 35 33 18 10 19 8 10 -15 -16 -42 -11
-43 14 -2 19 31 115 106 137 107 8 0 29 -103 29 -140 0 -15 -13 -45 -30 -66
-67 -90 -71 -97 -29 -53 84 88 84 88 82 158 -1 35 -7 69 -13 75 -33 33 12 102
48 74 62 -47 195 -209 225 -275 5 -12 16 -25 25 -28 13 -5 13 -3 1 11 -13 16
-22 33 -93 165 l-28 54 32 -30 c56 -54 143 -196 170 -282 7 -21 21 -58 32 -81
11 -24 17 -46 15 -49 -3 -2 -8 5 -12 16 -3 12 -11 21 -17 21 -6 0 -8 -8 -4
-17 83 -247 91 -294 91 -508 0 -168 -2 -186 -27 -269 -49 -160 -123 -282 -238
-396 -67 -66 -106 -96 -233 -175 -54 -34 -207 -93 -317 -122 -99 -26 -117 -28
-320 -28 -214 0 -216 0 -328 33 -181 53 -290 109 -410 210 -121 103 -228 279
-267 442 -37 151 -25 480 21 617 9 26 22 71 30 101 8 29 23 73 34 97 11 24 20
49 20 54 0 6 13 39 29 73 16 35 36 79 45 98 17 39 23 49 80 132 44 65 54 74
31 26 -9 -18 -23 -46 -31 -63 -15 -32 -45 -183 -43 -219 1 -11 8 10 15 49 15
74 59 200 79 225 6 8 23 36 38 61 38 68 53 77 79 51 19 -19 20 -23 7 -54 -7
-18 -14 -60 -14 -94 0 -56 3 -64 40 -109 22 -26 48 -57 57 -69 10 -11 18 -15
18 -9 0 7 -15 30 -34 50 -44 51 -56 75 -56 118 0 40 19 125 28 125 3 0 31 -17
62 -37 36 -24 63 -52 75 -76 21 -42 31 -44 15 -2 -15 39 -6 41 28 8 38 -36 75
-108 83 -158 6 -39 6 -39 7 12 1 29 -3 57 -10 65 -22 23 -39 58 -29 58 5 0 22
-25 36 -55 15 -30 29 -55 30 -55 2 0 -4 26 -12 58 l-15 59 -105 54 c-118 61
-207 135 -249 207 -52 91 -32 222 53 351 83 125 232 239 325 249 88 9 218 -85
218 -157 0 -13 3 -22 6 -18 4 3 3 22 0 42 -8 43 -77 118 -128 139 -47 20 -118
20 -163 2 -43 -18 -44 -11 -6 34 26 32 33 35 82 35 30 0 77 -3 104 -7 l50 -7
-55 19 c-30 11 -64 20 -76 20 -34 0 -36 12 -7 42 21 22 36 28 72 29 25 1 36 4
23 6 -21 4 -23 9 -18 46 l6 42 -13 -35 c-8 -19 -21 -36 -29 -38 -13 -3 -14 3
-6 40 5 24 15 73 21 111 6 37 14 67 18 67 5 0 10 -30 12 -67 3 -48 4 -42 2 20
-1 55 3 87 9 88 6 0 5 3 -1 6 -7 2 -13 10 -13 16 0 8 29 13 90 14 50 1 97 6
105 10 7 4 35 7 61 7 37 -1 49 -6 55 -20z m839 -689 c0 -8 -4 -15 -9 -15 -13
0 -22 16 -14 24 11 11 23 6 23 -9z m-1681 -11 c2 -2 -5 -7 -15 -10 -10 -4 -34
-21 -51 -37 -18 -17 -33 -27 -33 -21 0 5 -5 2 -10 -6 -7 -11 -10 -7 -10 19 l0
34 -19 -24 c-10 -13 -21 -31 -24 -39 -4 -8 -5 0 -3 19 3 31 2 32 -11 16 -12
-18 -13 -18 -13 -1 0 15 -3 16 -15 6 -12 -10 -15 -10 -15 1 -1 10 -5 8 -15 -5
-13 -18 -14 -16 -10 17 4 28 2 35 -9 31 -8 -3 -17 -13 -21 -22 -5 -13 -8 -14
-15 -3 -21 36 -3 40 143 34 78 -3 144 -7 146 -9z m1644 4 c8 -24 -4 -40 -19
-27 -12 10 -13 8 -8 -7 7 -18 6 -18 -15 1 l-22 19 5 -29 c6 -26 5 -27 -3 -7
-14 30 -23 28 -15 -3 3 -14 4 -25 1 -25 -6 0 -47 64 -47 73 0 3 21 8 48 10 26
2 52 4 59 5 6 1 13 -4 16 -10z m-1559 -10 c-3 -5 -10 -6 -15 -3 -5 4 -23 -7
-40 -24 -36 -37 -44 -39 -29 -8 8 14 -1 9 -24 -15 -47 -49 -46 -39 0 18 33 40
41 44 75 42 21 -1 36 -6 33 -10z m1334 -11 c7 -5 10 -12 7 -15 -2 -3 -11 1
-19 7 -12 10 -13 8 -8 -11 5 -22 4 -21 -26 7 -18 16 -32 31 -32 33 0 7 65 -11
78 -21z m96 -3 c17 -43 -13 -51 -50 -13 l-28 29 36 0 c23 0 38 -5 42 -16z
m-55 -58 c-3 -3 -11 5 -18 17 -13 21 -12 21 5 5 10 -10 16 -20 13 -22z"/>
<path d="M2342 3575 c14 -14 34 -25 44 -26 37 -4 54 1 54 15 0 8 6 16 13 19 6
3 -7 2 -30 0 -23 -3 -56 0 -74 6 l-32 11 25 -25z"/>
<path d="M2383 3283 c9 -2 23 -2 30 0 6 3 -1 5 -18 5 -16 0 -22 -2 -12 -5z"/>
<path d="M2061 2988 c-1 -29 -5 -38 -18 -38 -10 0 -25 -5 -33 -11 -12 -8 -9
-10 13 -6 l28 4 -19 -21 c-28 -30 -79 -127 -92 -174 -8 -33 -7 -49 7 -84 19
-49 76 -124 107 -140 20 -11 20 -11 2 18 -10 16 -28 40 -40 53 -20 22 -18 22
40 -7 33 -17 87 -37 120 -46 55 -15 61 -14 97 3 34 17 38 17 32 3 -11 -28 -13
-62 -3 -55 6 3 7 -4 3 -18 -7 -21 -6 -22 8 -11 28 23 49 108 45 179 -3 58 -1
66 17 73 11 4 30 4 43 -1 20 -8 22 -15 22 -82 0 -85 25 -174 44 -158 9 7 17 7
26 -2 10 -10 11 -9 5 2 -4 8 -9 24 -11 35 -1 12 -5 28 -9 38 -6 14 -2 14 32
-3 36 -17 42 -18 97 -3 33 9 87 29 120 46 58 29 60 29 40 7 -12 -13 -30 -37
-40 -54 l-19 -29 32 24 c36 26 74 78 97 134 13 32 13 42 0 85 -16 54 -57 133
-79 151 -21 18 -18 30 8 31 17 1 15 3 -10 11 -29 10 -33 15 -34 47 -1 20 -3
27 -6 16 -12 -55 -56 -92 -75 -62 -5 8 -8 5 -8 -9 0 -12 -7 -27 -15 -34 -13
-11 -15 -8 -16 16 -1 28 -1 27 -9 -6 -5 -22 -24 -49 -52 -73 -78 -70 -113 -89
-162 -89 -51 0 -60 6 -146 83 -46 41 -60 61 -61 84 l-2 30 -4 -28 c-4 -23 -7
-26 -19 -16 -8 6 -14 21 -14 33 0 15 -3 17 -9 7 -19 -29 -62 7 -74 64 -3 11
-5 3 -6 -17z"/>
<path d="M2286 2423 c-6 -14 -5 -15 5 -6 7 7 10 15 7 18 -3 3 -9 -2 -12 -12z"/>
<path d="M2456 2238 c-15 -76 -15 -92 3 -132 11 -22 31 -54 46 -71 23 -27 22
-23 -11 43 -33 66 -36 77 -29 127 6 54 0 77 -9 33z"/>
<path d="M2327 2178 c4 -58 2 -85 -10 -110 -8 -18 -18 -46 -22 -63 l-7 -30 21
30 c36 52 46 123 28 191 l-16 59 6 -77z"/>
<path d="M3146 1555 c21 -42 22 -49 10 -84 -46 -128 -111 -210 -183 -230 -50
-14 -53 -14 -53 5 0 14 -2 14 -16 -1 -10 -10 -25 -14 -38 -11 -12 3 -31 6 -43
6 -13 0 -21 5 -19 13 1 6 1 9 -1 5 -3 -5 -15 -8 -29 -8 -18 0 -22 4 -17 18 5
16 5 16 -8 1 -13 -15 -24 -15 -118 -4 -63 8 -107 18 -112 27 -7 10 -9 10 -9 1
0 -9 -16 -13 -44 -13 -34 0 -46 4 -49 18 -4 16 -5 16 -6 0 -1 -11 -10 -18 -23
-19 -13 -1 -32 -3 -43 -5 -167 -27 -220 -32 -227 -21 -6 9 -8 8 -8 -3 -1 -12
-3 -12 -14 3 -16 21 -30 22 -22 2 4 -12 -5 -15 -52 -15 -75 0 -133 18 -262 83
-86 43 -105 57 -104 74 0 12 -3 20 -8 17 -4 -3 -8 -12 -8 -19 0 -11 -8 -9 -36
7 -32 19 -35 25 -31 52 3 17 8 40 12 51 4 12 -2 7 -14 -10 -11 -16 -21 -43
-21 -59 0 -32 53 -131 74 -139 9 -4 5 8 -10 30 -13 20 -23 38 -21 40 2 2 58
-22 125 -53 l121 -57 -16 -24 c-9 -13 -13 -26 -10 -29 3 -3 8 4 12 15 9 28 31
30 98 7 54 -19 58 -22 53 -46 -6 -25 -6 -25 9 3 14 23 22 27 63 27 26 0 92 10
147 22 126 27 381 29 515 4 47 -9 118 -22 158 -28 53 -9 72 -16 72 -27 1 -13
3 -12 15 3 8 10 31 27 52 37 21 10 46 24 55 31 15 10 22 10 40 -1 23 -14 23
-13 5 6 -17 20 -17 22 12 69 17 26 31 54 31 62 0 7 4 11 9 8 9 -6 31 60 31 95
-1 27 -40 101 -57 106 -6 2 0 -17 13 -42z"/>
<path d="M2345 1151 c-11 -5 -64 -16 -118 -26 -53 -10 -100 -21 -103 -26 -3
-5 -17 -9 -32 -10 -15 0 -22 -3 -15 -5 6 -3 35 0 65 6 228 46 290 52 413 40
117 -11 155 -17 244 -40 24 -6 49 -9 55 -6 6 2 1 5 -11 5 -13 1 -23 5 -23 10
0 5 -39 16 -87 26 -49 9 -107 21 -130 26 -51 11 -230 11 -258 0z"/>
<path d="M2038 1073 c7 -3 16 -2 19 1 4 3 -2 6 -13 5 -11 0 -14 -3 -6 -6z"/>
</g>
</svg>
