<?xml version="1.0" standalone="no"?>
<!DOCTYPE svg PUBLIC "-//W3C//DTD SVG 20010904//EN"
 "http://www.w3.org/TR/2001/REC-SVG-20010904/DTD/svg10.dtd">
<svg version="1.0" xmlns="http://www.w3.org/2000/svg"
 width="600.000000pt" height="600.000000pt" viewBox="0 0 600.000000 600.000000"
 preserveAspectRatio="xMidYMid meet">
<metadata>
Created by potrace 1.11, written by Peter Selinger 2001-2013
</metadata>
<g transform="translate(0.000000,600.000000) scale(0.100000,-0.100000)"
fill="#000000" stroke="none">
<path d="M4324 5677 c-102 -87 -271 -179 -411 -226 -153 -51 -257 -72 -805
-161 -278 -45 -427 -80 -573 -135 -269 -101 -402 -202 -511 -390 l-35 -60 4
48 c3 27 22 84 45 132 23 47 37 85 31 85 -16 0 -71 -31 -111 -62 -21 -16 -73
-77 -115 -135 l-77 -105 -9 33 c-17 63 -3 188 30 272 17 42 29 77 26 77 -3 0
-31 -14 -62 -32 -278 -157 -425 -330 -476 -561 -13 -60 -16 -111 -13 -218 2
-76 3 -139 2 -139 -1 0 -30 23 -65 51 -35 28 -65 47 -66 42 -2 -4 8 -123 21
-263 13 -140 22 -257 20 -259 -2 -2 -27 17 -56 43 -29 25 -55 46 -58 46 -3 0
7 -111 22 -247 15 -137 27 -258 28 -270 0 -22 -2 -22 -123 -20 -107 2 -130 -1
-184 -21 -140 -54 -242 -195 -279 -387 -27 -136 -25 -402 3 -515 46 -183 134
-339 265 -470 40 -39 153 -131 251 -203 98 -72 181 -136 183 -142 3 -6 -18
-55 -46 -108 l-52 -97 42 0 c49 0 87 18 141 67 22 20 41 34 44 32 2 -3 -14
-60 -35 -128 -22 -68 -40 -127 -40 -132 0 -15 42 -10 86 10 23 10 54 34 69 54
l28 34 125 -151 c144 -174 415 -448 517 -524 82 -61 229 -139 333 -176 260
-93 593 -94 882 -4 278 87 524 258 738 513 41 50 78 91 82 93 4 2 99 -56 210
-127 111 -71 215 -133 231 -136 77 -17 219 79 266 180 27 58 31 141 9 184 -22
43 -76 85 -153 120 -38 18 -70 38 -70 46 0 7 -32 64 -71 127 -39 62 -72 118
-74 124 -2 6 49 49 112 94 201 145 363 272 437 344 124 118 190 244 216 410
l13 81 8 -55 c13 -100 27 -153 38 -142 19 19 32 278 20 402 -23 230 -87 386
-210 506 -101 99 -176 136 -285 142 -69 3 -93 0 -150 -21 l-67 -25 -4 22 c-3
11 -12 62 -21 111 -36 197 -131 420 -240 562 -62 82 -68 72 54 92 67 11 130
39 170 74 21 20 71 90 71 101 0 2 -42 3 -92 3 -65 -1 -108 4 -144 16 l-52 18
77 78 c120 122 178 238 188 372 6 77 -10 181 -40 262 l-22 58 -198 -131 c-109
-71 -200 -130 -203 -130 -12 0 4 30 90 158 159 238 209 415 176 617 -12 72
-50 205 -60 205 -3 0 -24 -15 -46 -33z m-846 -1323 c329 -68 559 -297 651
-649 11 -38 18 -71 16 -73 -1 -1 -29 4 -61 12 -147 37 -535 62 -707 47 -153
-14 -240 -39 -302 -86 l-45 -35 -116 0 c-116 0 -116 0 -152 31 -42 37 -91 59
-151 68 -37 5 -45 10 -46 29 -2 33 -81 108 -148 142 -79 39 -155 53 -257 47
-97 -6 -172 -31 -242 -82 -48 -35 -105 -101 -95 -111 3 -3 34 8 69 25 155 76
421 82 578 13 106 -47 105 -47 -252 -47 -361 0 -412 -6 -519 -60 -27 -13 -49
-22 -49 -18 0 3 15 33 32 67 67 125 243 274 443 373 247 123 316 123 389 -1
35 -59 98 -111 165 -136 61 -23 181 -39 181 -23 0 5 -16 24 -35 43 -78 76 -99
192 -47 267 28 42 70 81 110 102 21 11 22 10 22 -21 0 -18 -4 -49 -10 -67 -5
-19 -8 -37 -5 -39 8 -9 44 29 98 103 28 38 52 72 54 75 17 22 328 25 431 4z
m-486 -1192 c9 -31 33 -83 52 -115 l35 -58 -52 7 c-60 8 -67 11 -47 24 11 7 1
10 -31 10 -54 0 -203 -42 -228 -64 -36 -33 -30 -14 12 37 41 51 67 96 101 180
l15 37 63 0 63 0 17 -58z m1970 -163 c70 -36 117 -126 153 -294 19 -90 19
-252 0 -332 -57 -240 -252 -460 -748 -842 -88 -68 -161 -120 -163 -118 -3 3
49 62 116 132 166 175 262 283 352 396 88 110 235 323 267 386 30 60 71 208
71 257 0 134 -109 252 -250 270 l-45 6 25 -17 c60 -44 80 -66 86 -98 7 -38 -4
-60 -93 -189 -68 -100 -93 -169 -92 -254 1 -37 4 -78 8 -92 5 -19 9 -12 18 39
16 83 54 146 111 182 45 29 47 29 50 9 7 -43 -47 -166 -121 -274 -57 -84 -196
-226 -292 -299 -72 -54 -183 -115 -242 -132 -21 -6 -22 -4 -17 27 9 51 51 166
177 490 64 164 139 369 166 455 63 198 90 237 196 284 96 43 193 46 267 8z
m-3931 -80 c52 -23 113 -82 130 -127 48 -120 271 -726 310 -841 69 -203 67
-215 -38 -167 -189 89 -430 341 -508 535 -32 79 -33 105 -2 96 61 -19 93 -64
117 -165 19 -77 26 -80 40 -15 18 86 0 131 -140 353 -40 64 -43 111 -9 148 12
13 30 26 41 30 25 8 23 24 -4 24 -57 0 -104 -23 -155 -75 -66 -68 -82 -128
-65 -241 14 -86 40 -143 145 -306 124 -193 190 -275 442 -541 71 -76 132 -142
134 -148 10 -30 -381 276 -508 397 -291 276 -381 490 -323 764 51 245 117 317
276 305 37 -3 90 -15 117 -26z m2247 -97 c139 -76 251 -225 274 -363 23 -141
-27 -213 -238 -339 -107 -63 -129 -88 -121 -134 3 -19 4 -19 17 7 7 15 18 27
24 27 6 0 58 34 116 75 72 52 106 71 111 62 4 -6 10 -37 14 -67 9 -72 14 -91
26 -85 12 8 11 91 -2 138 -8 31 -7 43 6 63 8 13 19 24 24 24 4 0 49 -49 99
-109 106 -126 138 -155 104 -98 -12 20 -31 54 -43 75 l-21 37 45 -47 c25 -27
67 -91 96 -150 47 -92 56 -123 91 -296 22 -107 40 -200 40 -207 0 -11 -29 -14
-150 -12 l-149 2 -12 28 c-26 62 -120 121 -194 121 -77 0 -169 -46 -376 -186
-260 -176 -356 -219 -522 -234 -125 -11 -265 27 -322 86 -21 22 -29 42 -33 81
-4 47 -6 50 -18 34 -24 -33 -17 -97 15 -142 36 -50 120 -106 190 -127 71 -21
200 -21 296 1 96 21 98 35 3 16 -78 -16 -244 -13 -288 5 -18 6 11 8 96 4 140
-5 244 7 371 45 59 18 110 27 156 26 37 0 67 2 67 4 0 3 -10 14 -22 25 l-23
19 33 -5 c47 -8 39 11 -10 25 l-43 12 40 12 c49 15 483 19 505 5 12 -8 12 -10
-5 -11 -11 0 8 -7 41 -14 34 -7 76 -20 93 -29 45 -24 100 -83 122 -130 14 -32
19 -36 19 -18 0 30 -15 59 -54 101 l-31 34 90 -47 c50 -27 95 -53 102 -59 16
-16 -16 -139 -61 -233 -35 -74 -70 -112 -201 -219 -246 -202 -438 -275 -555
-213 -36 20 -53 38 -83 93 -41 75 -66 107 -79 103 -5 -2 -20 -30 -33 -63 -44
-109 -139 -175 -252 -175 -151 1 -466 164 -570 297 -45 56 -108 178 -126 243
-55 197 -40 473 39 714 25 76 138 326 147 326 2 0 2 -11 -1 -25 -3 -17 0 -25
10 -25 8 0 41 56 78 131 36 72 71 136 78 142 23 19 31 -12 25 -103 -4 -63 -2
-89 6 -95 18 -10 20 -5 32 66 7 35 14 69 18 76 4 7 52 -24 130 -83 68 -52 129
-93 135 -91 14 5 8 44 -10 72 -8 12 -58 46 -111 76 -123 69 -216 156 -233 219
-40 147 70 359 244 472 51 33 67 38 116 38 74 0 156 -25 202 -61 20 -16 45
-29 56 -29 10 0 48 19 83 42 70 45 140 69 179 61 14 -3 54 -21 88 -41z m-1342
-78 c115 -28 311 -26 417 4 44 12 93 30 110 39 26 13 20 4 -33 -53 -36 -38
-80 -97 -97 -130 l-33 -61 -67 -6 c-119 -12 -132 -10 -161 23 -15 17 -34 30
-44 30 -11 0 -18 8 -18 20 0 15 -7 20 -30 20 -17 0 -33 7 -39 17 -8 15 -14 16
-43 5 -48 -17 -54 -15 -33 8 19 21 19 21 -23 14 -28 -4 -47 -2 -58 6 -18 16
-57 80 -78 131 l-15 36 83 -42 c45 -23 118 -50 162 -61z m2103 7 c-12 -22 -39
-56 -59 -76 l-36 -35 -42 14 c-43 15 -46 14 -42 -17 1 -16 -1 -17 -20 -5 -18
11 -23 11 -31 -5 -6 -9 -21 -29 -34 -45 -22 -26 -29 -27 -123 -30 l-101 -4
-20 40 c-11 22 -44 70 -72 108 -31 40 -45 65 -34 60 60 -23 207 -38 315 -32
108 5 261 34 299 56 24 14 24 13 0 -29z m-539 -1249 c26 -13 36 -24 38 -46 3
-23 -6 -39 -49 -82 -29 -30 -57 -54 -61 -54 -4 0 -8 48 -8 106 0 118 -4 115
80 76z m-100 -83 l0 -100 -42 3 -43 3 -3 88 c-3 83 -2 88 20 97 13 5 33 9 46
9 21 1 22 -2 22 -100z m-110 -14 c0 -94 0 -94 -79 -79 -29 6 -31 9 -31 48 0
23 6 49 13 58 12 17 76 58 90 58 4 0 7 -38 7 -85z m-140 -35 c0 -28 -2 -30
-37 -30 l-38 1 35 29 c19 17 36 30 37 30 2 0 3 -13 3 -30z m974 -34 c180 -42
536 -158 536 -175 0 -3 -21 -15 -46 -25 -93 -38 -144 -116 -147 -223 -1 -35
-3 -63 -4 -63 -1 0 -109 69 -240 153 -131 85 -283 179 -338 210 -103 58 -236
117 -263 117 -10 0 -13 3 -6 10 21 21 96 29 239 26 120 -2 174 -9 269 -30z
m301 -16 c10 -11 13 -20 7 -20 -6 0 -16 9 -22 20 -6 11 -9 20 -7 20 2 0 12 -9
22 -20z"/>
<path d="M3513 4139 c-145 -25 -304 -125 -346 -216 -6 -13 -8 -25 -5 -28 2 -3
40 13 84 35 110 56 207 74 359 67 66 -3 147 -13 180 -22 76 -20 189 -72 211
-96 20 -22 44 -25 44 -6 0 24 -56 102 -101 141 -50 43 -155 99 -214 114 -63
16 -155 21 -212 11z"/>
<path d="M2557 2586 c-61 -119 -69 -159 -43 -219 14 -33 76 -99 76 -81 0 6 -5
15 -12 22 -25 25 3 22 59 -7 79 -39 121 -46 166 -28 l36 15 6 -29 c13 -57 30
-24 35 67 6 100 11 114 45 114 33 0 41 -22 43 -115 2 -81 14 -113 32 -85 5 8
10 22 10 31 0 15 4 15 43 1 41 -14 44 -14 132 20 50 20 91 34 93 33 2 -2 -4
-16 -14 -32 l-18 -28 33 30 c19 17 42 48 52 70 30 66 25 104 -32 212 -28 54
-54 101 -58 106 -4 4 -25 -6 -46 -23 -21 -16 -42 -30 -46 -30 -5 0 -42 -31
-81 -69 -86 -80 -104 -91 -154 -91 -33 0 -45 8 -113 79 -47 48 -87 81 -105 85
-16 4 -41 20 -56 36 l-26 28 -57 -112z"/>
<path d="M2230 1379 c0 -49 70 -101 173 -129 76 -20 217 -9 302 25 77 31 178
85 172 92 -3 2 -44 -12 -93 -31 -48 -20 -90 -36 -92 -36 -2 0 6 9 19 21 27 23
31 24 -71 -13 -45 -16 -72 -19 -150 -15 -117 7 -157 18 -215 62 -25 19 -45 30
-45 24z"/>
<path d="M2846 945 c-77 -16 -105 -30 -36 -18 55 10 282 11 365 1 l60 -6 -45
14 c-65 22 -259 27 -344 9z"/>
</g>
</svg>
